<svg xmlns="http://www.w3.org/2000/svg" xmlns:xlink="http://www.w3.org/1999/xlink" width="381.68" height="341.03" viewBox="0 0 381.68 341.03">
  <defs>
    <clipPath id="clip-path">
      <ellipse id="Ellipse_3" data-name="Ellipse 3" cx="90.474" cy="94.678" rx="90.474" ry="94.678"/>
    </clipPath>
  </defs>
  <g id="Gruppe_40" data-name="Gruppe 40" transform="translate(-386.667 -81)">
    <g id="ChatbotTest" transform="translate(386.667 81)">
      <path id="Pfad_1" data-name="Pfad 1" d="M189.128,89.712C268.123,63.642,276.582-.033,327.635,0s56.808,64.242,104.024,41.539,91.059-5.434,96.929,93.012-18,176.923-145.694,141.418-109.64,56.074-167.072,44.139C158.39,308.207,110.133,115.782,189.128,89.712Z" transform="translate(-147.716 0)" fill="none" opacity="0.1"/>
      <ellipse id="Ellipse_1" data-name="Ellipse 1" cx="148.644" cy="19.965" rx="148.644" ry="19.965" transform="translate(49.727 301.101)" fill="none" opacity="0.1"/>
      <g id="Gruppe_2" data-name="Gruppe 2" transform="translate(170.914 200.154)">
        <g id="Gruppe_1" data-name="Gruppe 1">
          <rect id="Rechteck_1" data-name="Rechteck 1" width="42.45" height="134.934" fill="#ffbe55"/>
        </g>
      </g>
      <g id="Gruppe_3" data-name="Gruppe 3" transform="translate(8.835 7.645)">
        <path id="Pfad_2" data-name="Pfad 2" d="M428.224,368.692H788.148a3.4,3.4,0,0,0,3.324-3.478V101.578a3.4,3.4,0,0,0-3.324-3.478H428.224a3.4,3.4,0,0,0-3.324,3.478V365.25A3.373,3.373,0,0,0,428.224,368.692Z" transform="translate(-424.9 -98.1)" fill="#0e538c"/>
      </g>
      <g id="Gruppe_4" data-name="Gruppe 4" transform="translate(180.297 242.909)">
        <path id="Pfad_3" data-name="Pfad 3" d="M920.1,759.755A11.852,11.852,0,1,0,931.942,747.4C925.4,747.363,920.1,752.907,920.1,759.755Z" transform="translate(-920.1 -747.4)" fill="#163c47"/>
      </g>
      <rect id="Rechteck_2" data-name="Rechteck 2" width="190.99" height="21.958" transform="translate(96.644 319.036)" fill="#0e538c"/>
      <g id="Gruppe_15" data-name="Gruppe 15" transform="translate(21.785 20.888)">
        <g id="Gruppe_5" data-name="Gruppe 5">
          <rect id="Rechteck_3" data-name="Rechteck 3" width="340.015" height="208.162" transform="translate(340.015 208.162) rotate(180)" fill="#cce9ff"/>
        </g>
        <rect id="Rechteck_4" data-name="Rechteck 4" width="309.822" height="19.928" transform="translate(14.819 15.49)" fill="#ffbe55"/>
        <rect id="Rechteck_5" data-name="Rechteck 5" width="309.822" height="122.904" transform="translate(14.819 35.419)" fill="#f7f7f7"/>
        <rect id="Rechteck_6" data-name="Rechteck 6" width="143.139" height="84.46" transform="translate(5.851 108.429)" fill="#31a1f4"/>
        <rect id="Rechteck_7" data-name="Rechteck 7" width="145.216" height="8.37" transform="translate(5.851 100.059)" fill="#d3d3d3"/>
        <g id="Gruppe_14" data-name="Gruppe 14" transform="translate(12.288 115.676)">
          <g id="Gruppe_7" data-name="Gruppe 7" transform="translate(0.038)">
            <rect id="Rechteck_8" data-name="Rechteck 8" width="55.954" height="1.015" transform="translate(59.174 3.768)" fill="#fff"/>
            <g id="Gruppe_6" data-name="Gruppe 6">
              <rect id="Rechteck_9" data-name="Rechteck 9" width="127.246" height="1.015" fill="#fff"/>
              <rect id="Rechteck_10" data-name="Rechteck 10" width="55.954" height="1.015" transform="translate(0 3.768)" fill="#fff"/>
              <rect id="Rechteck_11" data-name="Rechteck 11" width="9.418" height="1.015" transform="translate(117.828 3.768)" fill="#fff"/>
            </g>
          </g>
          <g id="Gruppe_9" data-name="Gruppe 9" transform="translate(0 12.298)">
            <rect id="Rechteck_12" data-name="Rechteck 12" width="55.954" height="1.015" transform="translate(68.083 1.015) rotate(180)" fill="#fff"/>
            <g id="Gruppe_8" data-name="Gruppe 8" transform="translate(0 0)">
              <rect id="Rechteck_13" data-name="Rechteck 13" width="127.246" height="1.015" transform="translate(127.258 4.809) rotate(180)" fill="#fff"/>
              <rect id="Rechteck_14" data-name="Rechteck 14" width="55.954" height="1.015" transform="translate(127.262 1.015) rotate(180)" fill="#fff"/>
              <rect id="Rechteck_15" data-name="Rechteck 15" width="9.418" height="1.015" transform="translate(9.418 1.015) rotate(180)" fill="#fff"/>
            </g>
          </g>
          <rect id="Rechteck_16" data-name="Rechteck 16" width="127.246" height="1.015" transform="translate(0.038 7.537)" fill="#fff"/>
          <g id="Gruppe_11" data-name="Gruppe 11" transform="translate(0.038 21.052)">
            <rect id="Rechteck_17" data-name="Rechteck 17" width="55.954" height="1.015" transform="translate(59.174 3.768)" fill="#fff"/>
            <g id="Gruppe_10" data-name="Gruppe 10">
              <rect id="Rechteck_18" data-name="Rechteck 18" width="127.246" height="1.015" fill="#fff"/>
              <rect id="Rechteck_19" data-name="Rechteck 19" width="55.954" height="1.015" transform="translate(0 3.768)" fill="#fff"/>
              <rect id="Rechteck_20" data-name="Rechteck 20" width="9.418" height="1.015" transform="translate(117.828 3.768)" fill="#fff"/>
            </g>
          </g>
          <g id="Gruppe_13" data-name="Gruppe 13" transform="translate(0 33.382)">
            <rect id="Rechteck_21" data-name="Rechteck 21" width="55.954" height="1.015" transform="translate(68.083 1.015) rotate(180)" fill="#fff"/>
            <g id="Gruppe_12" data-name="Gruppe 12" transform="translate(0 0)">
              <rect id="Rechteck_22" data-name="Rechteck 22" width="127.246" height="1.015" transform="translate(127.258 4.773) rotate(180)" fill="#fff"/>
              <rect id="Rechteck_23" data-name="Rechteck 23" width="55.954" height="1.015" transform="translate(127.262 1.015) rotate(180)" fill="#fff"/>
              <rect id="Rechteck_24" data-name="Rechteck 24" width="9.418" height="1.015" transform="translate(9.418 1.015) rotate(180)" fill="#fff"/>
            </g>
          </g>
          <rect id="Rechteck_25" data-name="Rechteck 25" width="127.246" height="1.015" transform="translate(0.038 28.588)" fill="#fff"/>
        </g>
        <rect id="Rechteck_26" data-name="Rechteck 26" width="5.263" height="84.46" transform="translate(145.77 108.429)" fill="#adcfe0"/>
        <rect id="Rechteck_27" data-name="Rechteck 27" width="162.944" height="19.928" transform="translate(161.697 70.928)" fill="#31a1f4"/>
        <rect id="Rechteck_28" data-name="Rechteck 28" width="162.944" height="101.997" transform="translate(161.697 90.856)" fill="#f7f7f7"/>
        <path id="Pfad_4" data-name="Pfad 4" d="M887.594,437.2H884.27a.991.991,0,0,0-.969,1.015v4.022a.991.991,0,0,0,.969,1.015h3.324a.991.991,0,0,0,.969-1.015v-4.022A.97.97,0,0,0,887.594,437.2Z" transform="translate(-737.53 -327.575)" fill="#e9f8ff"/>
      </g>
      <g id="Gruppe_29" data-name="Gruppe 29" transform="translate(46.645 48.009)">
        <g id="Gruppe_16" data-name="Gruppe 16" transform="translate(136.821 174.23)">
          <path id="Pfad_17" data-name="Pfad 17" d="M36.854,31.048l22.489-.49L58.078,88l-22.489.49Z" transform="matrix(0.607, -0.795, 0.795, 0.607, 0, 28.599)" fill="#ffbe55"/>
          <path id="Pfad_18" data-name="Pfad 18" d="M36.854,31.048l22.489-.49L58.078,88l-22.489.49Z" transform="matrix(0.607, -0.795, 0.795, 0.607, 0, 28.599)" opacity="0.08"/>
          <path id="Pfad_5" data-name="Pfad 5" d="M1261.391,836.2l-6.544,8.95a12.228,12.228,0,0,1-17.693,2.464L1166,790.729l21.883-29.929,71.154,56.887A13.626,13.626,0,0,1,1261.391,836.2Z" transform="translate(-1084.027 -735.275)" fill="#ffbe55"/>
        </g>
        <ellipse id="Ellipse_2" data-name="Ellipse 2" cx="109.449" cy="114.534" rx="109.449" ry="114.534" fill="#ffbe55"/>
        <g id="Gruppe_28" data-name="Gruppe 28" transform="translate(18.974 20.544)">
          <g id="Gruppe_27" data-name="Gruppe 27" clip-path="url(#clip-path)">
            <g id="Gruppe_17" data-name="Gruppe 17" transform="translate(-116.569 -20.412)">
              <rect id="Rechteck_31" data-name="Rechteck 31" width="368.65" height="247.04" transform="translate(368.65 247.04) rotate(180)" fill="#cce9ff"/>
            </g>
            <rect id="Rechteck_32" data-name="Rechteck 32" width="335.895" height="160.261" transform="translate(-100.516 -22.211)" fill="#f7f7f7"/>
            <rect id="Rechteck_33" data-name="Rechteck 33" width="254.353" height="150.043" transform="translate(-106.229 49.35)" fill="#ffbe55"/>
            <rect id="Rechteck_34" data-name="Rechteck 34" width="258.024" height="14.856" transform="translate(-106.229 34.531)" fill="#d3d3d3"/>
            <g id="Gruppe_26" data-name="Gruppe 26" transform="translate(-94.733 62.249)">
              <g id="Gruppe_19" data-name="Gruppe 19">
                <rect id="Rechteck_35" data-name="Rechteck 35" width="99.408" height="1.812" transform="translate(105.19 6.703)" fill="#fff"/>
                <g id="Gruppe_18" data-name="Gruppe 18">
                  <rect id="Rechteck_36" data-name="Rechteck 36" width="226.1" height="1.812" fill="#fff"/>
                  <rect id="Rechteck_37" data-name="Rechteck 37" width="99.408" height="1.812" transform="translate(0 6.703)" fill="#fff"/>
                  <rect id="Rechteck_38" data-name="Rechteck 38" width="16.724" height="1.812" transform="translate(209.41 6.703)" fill="#fff"/>
                </g>
              </g>
              <g id="Gruppe_21" data-name="Gruppe 21" transform="translate(0.004 21.878)">
                <rect id="Rechteck_39" data-name="Rechteck 39" width="99.408" height="1.812" transform="translate(120.941 1.812) rotate(180)" fill="#fff"/>
                <g id="Gruppe_20" data-name="Gruppe 20">
                  <rect id="Rechteck_40" data-name="Rechteck 40" width="226.1" height="1.812" transform="translate(226.122 8.547) rotate(180)" fill="#fff"/>
                  <rect id="Rechteck_41" data-name="Rechteck 41" width="99.408" height="1.812" transform="translate(226.122 1.812) rotate(180)" fill="#fff"/>
                  <rect id="Rechteck_42" data-name="Rechteck 42" width="16.724" height="1.812" transform="translate(16.724 1.812) rotate(180)" fill="#fff"/>
                </g>
              </g>
              <rect id="Rechteck_43" data-name="Rechteck 43" width="226.1" height="1.812" transform="translate(0 13.443)" fill="#fff"/>
              <g id="Gruppe_23" data-name="Gruppe 23" transform="translate(0 37.393)">
                <rect id="Rechteck_44" data-name="Rechteck 44" width="99.408" height="1.812" transform="translate(105.19 6.739)" fill="#fff"/>
                <g id="Gruppe_22" data-name="Gruppe 22">
                  <rect id="Rechteck_45" data-name="Rechteck 45" width="226.1" height="1.812" fill="#fff"/>
                  <rect id="Rechteck_46" data-name="Rechteck 46" width="99.408" height="1.812" transform="translate(0 6.739)" fill="#fff"/>
                  <rect id="Rechteck_47" data-name="Rechteck 47" width="16.724" height="1.812" transform="translate(209.41 6.739)" fill="#fff"/>
                </g>
              </g>
              <g id="Gruppe_25" data-name="Gruppe 25" transform="translate(0.004 59.295)">
                <rect id="Rechteck_48" data-name="Rechteck 48" width="99.408" height="1.812" transform="translate(120.941 1.812) rotate(180)" fill="#fff"/>
                <g id="Gruppe_24" data-name="Gruppe 24">
                  <rect id="Rechteck_49" data-name="Rechteck 49" width="226.1" height="1.812" transform="translate(226.122 8.547) rotate(180)" fill="#fff"/>
                  <rect id="Rechteck_50" data-name="Rechteck 50" width="99.408" height="1.812" transform="translate(226.122 1.812) rotate(180)" fill="#fff"/>
                  <rect id="Rechteck_51" data-name="Rechteck 51" width="16.724" height="1.812" transform="translate(16.724 1.812) rotate(180)" fill="#fff"/>
                </g>
              </g>
              <rect id="Rechteck_52" data-name="Rechteck 52" width="226.1" height="1.812" transform="translate(0 50.836)" fill="#fff"/>
            </g>
            <rect id="Rechteck_53" data-name="Rechteck 53" width="9.383" height="150.043" transform="translate(142.446 49.35)" fill="#cce9ff"/>
            <path id="Pfad_6" data-name="Pfad 6" d="M1008.614,408.3h-7.444a.991.991,0,0,0-.97,1.015v8.7a.991.991,0,0,0,.97,1.015h7.444a.991.991,0,0,0,.97-1.015v-8.7A.991.991,0,0,0,1008.614,408.3Z" transform="translate(-857.789 -356.812)" fill="#f7f7f7"/>
          </g>
        </g>
      </g>
    </g>
  </g>
</svg>
